<mxfile host="65bd71144e">
    <diagram id="Zvk3NxUUzPHEr75oqeDG" name="第 1 页">
        <mxGraphModel dx="1718" dy="1066" grid="1" gridSize="10" guides="1" tooltips="1" connect="1" arrows="1" fold="1" page="1" pageScale="1" pageWidth="1169" pageHeight="827" math="0" shadow="0">
            <root>
                <mxCell id="0"/>
                <mxCell id="1" parent="0"/>
                <mxCell id="2" value="华众易命名编码流程" style="swimlane;childLayout=stackLayout;resizeParent=1;resizeParentMax=0;startSize=20;html=1;" vertex="1" parent="1">
                    <mxGeometry x="50" y="40" width="1070" height="730" as="geometry"/>
                </mxCell>
                <mxCell id="3" value="总经办/事业部" style="swimlane;startSize=20;html=1;fontColor=#3A6CC3;" vertex="1" parent="2">
                    <mxGeometry y="20" width="290" height="710" as="geometry"/>
                </mxCell>
                <mxCell id="4" value="&lt;font face=&quot;Times New Roman&quot; style=&quot;font-size: 11px;&quot; color=&quot;#ffffff&quot;&gt;业务确项&lt;/font&gt;" style="rounded=0;whiteSpace=wrap;html=1;fontColor=#3A6CC3;fillColor=#9f9e9e;strokeColor=none;fontSize=12;" vertex="1" parent="3">
                    <mxGeometry x="95" y="50" width="100" height="60" as="geometry"/>
                </mxCell>
                <mxCell id="37" value="&lt;b style=&quot;&quot;&gt;&lt;font color=&quot;#000000&quot;&gt;审批启动&lt;/font&gt;&lt;/b&gt;&lt;br&gt;&lt;u style=&quot;&quot;&gt;&lt;font color=&quot;#9f9e9e&quot; style=&quot;font-size: 11px;&quot;&gt;资源计划&lt;/font&gt;&lt;/u&gt;" style="rounded=0;whiteSpace=wrap;html=1;fontColor=#3A6CC3;fillColor=none;strokeColor=#9F9E9E;" vertex="1" parent="3">
                    <mxGeometry x="95" y="150" width="100" height="60" as="geometry"/>
                </mxCell>
                <mxCell id="59" value="" style="group" vertex="1" connectable="0" parent="3">
                    <mxGeometry x="-26" y="357" width="300" height="220" as="geometry"/>
                </mxCell>
                <mxCell id="58" value="" style="ellipse;shape=cloud;whiteSpace=wrap;html=1;strokeColor=#9F9E9E;fontSize=11;fontColor=#333333;fillColor=#CCCCFF;" vertex="1" parent="59">
                    <mxGeometry width="300" height="220" as="geometry"/>
                </mxCell>
                <mxCell id="57" value="&lt;h1&gt;产品编码应用&lt;/h1&gt;&lt;p&gt;M-产品编码 用于工作流、档案流&lt;/p&gt;&lt;p&gt;N-产品代号 用于研发识别&lt;/p&gt;&lt;p&gt;A-通识名称 用于一般表达&lt;/p&gt;&lt;p&gt;C-专著名称 用于宣发活动&lt;/p&gt;" style="text;html=1;strokeColor=none;fillColor=none;spacing=5;spacingTop=-20;whiteSpace=wrap;overflow=hidden;rounded=0;fontSize=11;fontColor=#333333;" vertex="1" parent="59">
                    <mxGeometry x="76" y="43" width="190" height="150" as="geometry"/>
                </mxCell>
                <mxCell id="9" style="edgeStyle=orthogonalEdgeStyle;rounded=0;orthogonalLoop=1;jettySize=auto;html=1;exitX=1;exitY=0.5;exitDx=0;exitDy=0;entryX=0;entryY=0.5;entryDx=0;entryDy=0;fontSize=11;fontColor=#FFFFFF;" edge="1" parent="2" source="4" target="14">
                    <mxGeometry relative="1" as="geometry"/>
                </mxCell>
                <mxCell id="10" value="&lt;font color=&quot;#000000&quot;&gt;统筹战略 / 市场目标&lt;/font&gt;" style="edgeLabel;html=1;align=center;verticalAlign=middle;resizable=0;points=[];fontSize=11;fontColor=#FFFFFF;" vertex="1" connectable="0" parent="9">
                    <mxGeometry x="0.135" relative="1" as="geometry">
                        <mxPoint as="offset"/>
                    </mxGeometry>
                </mxCell>
                <mxCell id="12" value="产品研发部" style="swimlane;startSize=20;html=1;fontColor=#3A6CC3;" vertex="1" parent="2">
                    <mxGeometry x="290" y="20" width="220" height="710" as="geometry"/>
                </mxCell>
                <mxCell id="13" value="&lt;font color=&quot;#ffffff&quot;&gt;&lt;b&gt;原案提审&lt;/b&gt;&lt;/font&gt;&lt;br&gt;&lt;font color=&quot;#c4c4c4&quot; style=&quot;font-size: 11px;&quot;&gt;&lt;u&gt;产品代号N&lt;/u&gt;&lt;/font&gt;" style="rounded=0;whiteSpace=wrap;html=1;fontColor=#3A6CC3;fillColor=#3F6CC3;strokeColor=none;" vertex="1" parent="12">
                    <mxGeometry x="60" y="150" width="100" height="60" as="geometry"/>
                </mxCell>
                <mxCell id="15" value="研发方案&lt;br&gt;&lt;u style=&quot;&quot;&gt;&lt;font color=&quot;#c4c4c4&quot;&gt;产品编码M&lt;/font&gt;&lt;/u&gt;" style="rounded=0;whiteSpace=wrap;html=1;fillColor=#3F6CC3;strokeColor=#001DBC;fontColor=#ffffff;" vertex="1" parent="12">
                    <mxGeometry x="60" y="250" width="100" height="60" as="geometry"/>
                </mxCell>
                <mxCell id="51" value="1" style="ellipse;whiteSpace=wrap;html=1;aspect=fixed;strokeWidth=2;fontFamily=Tahoma;spacingBottom=4;spacingRight=2;strokeColor=#B20000;fontSize=11;fontColor=#ffffff;fillColor=#e51400;" vertex="1" parent="12">
                    <mxGeometry x="50" y="140" width="20" height="20" as="geometry"/>
                </mxCell>
                <mxCell id="52" value="2" style="ellipse;whiteSpace=wrap;html=1;aspect=fixed;strokeWidth=2;fontFamily=Tahoma;spacingBottom=4;spacingRight=2;strokeColor=#B20000;fontSize=11;fontColor=#ffffff;fillColor=#e51400;" vertex="1" parent="12">
                    <mxGeometry x="50" y="240" width="20" height="20" as="geometry"/>
                </mxCell>
                <mxCell id="46" value="&lt;font style=&quot;font-size: 11px;&quot;&gt;实施维护&lt;br&gt;编码工作流、档案流&lt;br&gt;&lt;/font&gt;" style="rounded=0;whiteSpace=wrap;html=1;fillColor=#3F6CC3;strokeColor=none;fontColor=#FFFFFF;" vertex="1" parent="12">
                    <mxGeometry x="60" y="620" width="112.5" height="60" as="geometry"/>
                </mxCell>
                <mxCell id="18" value="市场部" style="swimlane;startSize=20;html=1;fontColor=#3A6CC3;" vertex="1" parent="2">
                    <mxGeometry x="510" y="20" width="280" height="710" as="geometry">
                        <mxRectangle x="510" y="20" width="40" height="710" as="alternateBounds"/>
                    </mxGeometry>
                </mxCell>
                <mxCell id="19" value="" style="rounded=1;whiteSpace=wrap;html=1;fontColor=#000000;fillColor=#3F6CC3;gradientColor=#9F9E9E;opacity=20;gradientDirection=east;" vertex="1" parent="18">
                    <mxGeometry x="-205" y="370" width="475" height="210" as="geometry"/>
                </mxCell>
                <mxCell id="20" value="" style="verticalLabelPosition=bottom;verticalAlign=top;html=1;shape=mxgraph.basic.rect;fillColor2=none;strokeWidth=1;size=10.5;indent=100;fontColor=#3A6CC3;fillColor=none;gradientColor=default;strokeColor=default;movable=1;resizable=1;rotatable=1;deletable=1;editable=1;connectable=1;" vertex="1" parent="18">
                    <mxGeometry x="15" y="425" width="250" height="90" as="geometry"/>
                </mxCell>
                <mxCell id="24" value="&lt;span style=&quot;color: rgb(255, 255, 255); font-size: 14px;&quot;&gt;技术产品主体&lt;br&gt;&lt;/span&gt;&lt;font style=&quot;&quot; color=&quot;#9f9e9e&quot;&gt;&lt;u&gt;通识名称A&lt;/u&gt;&lt;/font&gt;" style="rounded=0;whiteSpace=wrap;html=1;fontColor=#3A6CC3;fillColor=#3F6CC3;strokeColor=none;" vertex="1" parent="18">
                    <mxGeometry x="25" y="440" width="100" height="60" as="geometry"/>
                </mxCell>
                <mxCell id="25" value="&lt;span style=&quot;font-size: 14px;&quot;&gt;流程资料支持&lt;/span&gt;" style="rounded=0;whiteSpace=wrap;html=1;fontColor=#3A6CC3;fillColor=none;strokeColor=#3F6CC3;" vertex="1" parent="18">
                    <mxGeometry x="155" y="440" width="100" height="60" as="geometry"/>
                </mxCell>
                <mxCell id="31" value="&lt;b&gt;技术资料&lt;/b&gt;" style="rounded=0;whiteSpace=wrap;html=1;shadow=0;glass=0;labelBackgroundColor=#ffffff;sketch=0;strokeColor=none;fontSize=11;fontColor=#000000;fillColor=default;gradientColor=none;" vertex="1" parent="18">
                    <mxGeometry x="200" y="405" width="60" height="30" as="geometry"/>
                </mxCell>
                <mxCell id="32" value="&lt;b&gt;综合产品资料&lt;/b&gt;" style="rounded=0;whiteSpace=wrap;html=1;fontColor=#000000;fillColor=#FFFFFF;gradientColor=none;gradientDirection=east;strokeColor=none;" vertex="1" parent="18">
                    <mxGeometry x="155" y="350" width="110" height="40" as="geometry"/>
                </mxCell>
                <mxCell id="14" value="&lt;font style=&quot;font-size: 11px;&quot;&gt;市场预研&lt;br&gt;&lt;/font&gt;" style="rounded=0;whiteSpace=wrap;html=1;fillColor=#FF9933;strokeColor=none;fontColor=#FFFFFF;" vertex="1" parent="18">
                    <mxGeometry x="90" y="50" width="100" height="60" as="geometry"/>
                </mxCell>
                <mxCell id="43" style="edgeStyle=orthogonalEdgeStyle;html=1;exitX=1;exitY=0.5;exitDx=0;exitDy=0;fontSize=11;fontColor=#000000;elbow=vertical;" edge="1" parent="18" source="42" target="20">
                    <mxGeometry relative="1" as="geometry"/>
                </mxCell>
                <mxCell id="42" value="&lt;span style=&quot;font-size: 14px;&quot;&gt;产品设计方案&lt;/span&gt;" style="rounded=0;whiteSpace=wrap;html=1;fontColor=#3A6CC3;fillColor=none;strokeColor=#3F6CC3;" vertex="1" parent="18">
                    <mxGeometry x="-160" y="440" width="100" height="60" as="geometry"/>
                </mxCell>
                <mxCell id="53" value="3" style="ellipse;whiteSpace=wrap;html=1;aspect=fixed;strokeWidth=2;fontFamily=Tahoma;spacingBottom=4;spacingRight=2;strokeColor=#B20000;fontSize=11;fontColor=#ffffff;fillColor=#e51400;" vertex="1" parent="18">
                    <mxGeometry x="18.5" y="432" width="20" height="20" as="geometry"/>
                </mxCell>
                <mxCell id="35" value="行政部 -&amp;gt; 版权综合办" style="swimlane;startSize=20;html=1;fontColor=#3A6CC3;" vertex="1" parent="2">
                    <mxGeometry x="790" y="20" width="280" height="710" as="geometry">
                        <mxRectangle x="510" y="20" width="40" height="710" as="alternateBounds"/>
                    </mxGeometry>
                </mxCell>
                <mxCell id="21" value="" style="rounded=1;whiteSpace=wrap;html=1;dashed=1;fontColor=#3A6CC3;fillColor=none;gradientColor=default;" vertex="1" parent="35">
                    <mxGeometry x="10" y="670" width="260" height="30" as="geometry"/>
                </mxCell>
                <mxCell id="33" value="&lt;font color=&quot;#ffffff&quot;&gt;行政&lt;/font&gt;" style="rounded=0;whiteSpace=wrap;html=1;fontColor=#3A6CC3;fillColor=#00CC66;gradientColor=none;strokeColor=none;" vertex="1" parent="35">
                    <mxGeometry x="220" y="675" width="40" height="17.5" as="geometry"/>
                </mxCell>
                <mxCell id="30" value="&lt;p style=&quot;line-height: 120%;&quot;&gt;&lt;font style=&quot;font-size: 11px;&quot; color=&quot;#000000&quot;&gt;图例&lt;/font&gt;&lt;/p&gt;" style="text;html=1;strokeColor=none;fillColor=none;align=center;verticalAlign=middle;whiteSpace=wrap;rounded=0;fontColor=#3A6CC3;" vertex="1" parent="35">
                    <mxGeometry x="30" y="676.25" width="35" height="17.5" as="geometry"/>
                </mxCell>
                <mxCell id="34" value="创新研发&lt;br&gt;市场驱动计划" style="ellipse;whiteSpace=wrap;html=1;aspect=fixed;rounded=1;shadow=0;glass=1;labelBackgroundColor=#ffffff;sketch=0;strokeColor=default;fontSize=11;fontColor=#000000;fillColor=none;gradientColor=none;dashed=1;" vertex="1" parent="35">
                    <mxGeometry x="-20" y="154" width="200" height="200" as="geometry"/>
                </mxCell>
                <mxCell id="50" style="edgeStyle=elbowEdgeStyle;html=1;exitX=0.5;exitY=1;exitDx=0;exitDy=0;entryX=0.5;entryY=0;entryDx=0;entryDy=0;fontSize=11;fontColor=#9F9E9E;" edge="1" parent="35" source="26" target="49">
                    <mxGeometry relative="1" as="geometry"/>
                </mxCell>
                <mxCell id="60" value="……（知产工作流）" style="edgeLabel;html=1;align=center;verticalAlign=middle;resizable=0;points=[];fontSize=11;fontColor=#333333;" vertex="1" connectable="0" parent="50">
                    <mxGeometry x="-0.2478" y="-2" relative="1" as="geometry">
                        <mxPoint as="offset"/>
                    </mxGeometry>
                </mxCell>
                <mxCell id="26" value="&lt;font color=&quot;#ffffff&quot;&gt;知产申报&lt;br&gt;&lt;u&gt;专著名称C&lt;/u&gt;&lt;br&gt;&lt;/font&gt;" style="rounded=0;whiteSpace=wrap;html=1;fontColor=#3A6CC3;fillColor=#00CC66;strokeColor=none;" vertex="1" parent="35">
                    <mxGeometry x="80" y="154" width="100" height="60" as="geometry"/>
                </mxCell>
                <mxCell id="45" value="&lt;font style=&quot;font-size: 11px;&quot;&gt;商务推广&lt;br&gt;&lt;u&gt;专著名称&lt;/u&gt;&lt;br&gt;&lt;/font&gt;" style="rounded=0;whiteSpace=wrap;html=1;fillColor=#FF9933;strokeColor=none;fontColor=#FFFFFF;" vertex="1" parent="35">
                    <mxGeometry x="-20" y="310" width="100" height="60" as="geometry"/>
                </mxCell>
                <mxCell id="49" value="&lt;font color=&quot;#ffffff&quot;&gt;公共资料入库&lt;br&gt;专著C &amp;amp; 通识A&lt;br&gt;&lt;/font&gt;" style="rounded=0;whiteSpace=wrap;html=1;fontColor=#3A6CC3;fillColor=#00CC66;strokeColor=none;" vertex="1" parent="35">
                    <mxGeometry x="80" y="440" width="100" height="60" as="geometry"/>
                </mxCell>
                <mxCell id="54" value="4" style="ellipse;whiteSpace=wrap;html=1;aspect=fixed;strokeWidth=2;fontFamily=Tahoma;spacingBottom=4;spacingRight=2;strokeColor=#B20000;fontSize=11;fontColor=#ffffff;fillColor=#e51400;" vertex="1" parent="35">
                    <mxGeometry x="72" y="144" width="20" height="20" as="geometry"/>
                </mxCell>
                <mxCell id="55" value="&lt;font color=&quot;#ffffff&quot;&gt;市场&lt;/font&gt;" style="rounded=0;whiteSpace=wrap;html=1;fontColor=#3A6CC3;fillColor=#F19D38;gradientColor=none;strokeColor=none;" vertex="1" parent="35">
                    <mxGeometry x="150" y="676.25" width="40" height="17.5" as="geometry"/>
                </mxCell>
                <mxCell id="56" value="&lt;font color=&quot;#ffffff&quot;&gt;研发&lt;/font&gt;" style="rounded=0;whiteSpace=wrap;html=1;fontColor=#3A6CC3;fillColor=#3F6CC3;gradientColor=none;strokeColor=none;" vertex="1" parent="35">
                    <mxGeometry x="80" y="675" width="40" height="17.5" as="geometry"/>
                </mxCell>
                <mxCell id="36" style="edgeStyle=orthogonalEdgeStyle;html=1;exitX=0.5;exitY=1;exitDx=0;exitDy=0;entryX=1;entryY=0.5;entryDx=0;entryDy=0;fontSize=11;fontColor=#FFFFFF;elbow=vertical;" edge="1" parent="2" source="14" target="13">
                    <mxGeometry relative="1" as="geometry"/>
                </mxCell>
                <mxCell id="38" style="edgeStyle=orthogonalEdgeStyle;html=1;exitX=0;exitY=0.5;exitDx=0;exitDy=0;entryX=1;entryY=0.5;entryDx=0;entryDy=0;fontSize=11;fontColor=#FFFFFF;elbow=vertical;" edge="1" parent="2" source="13" target="37">
                    <mxGeometry relative="1" as="geometry"/>
                </mxCell>
                <mxCell id="39" style="edgeStyle=orthogonalEdgeStyle;html=1;exitX=0.5;exitY=1;exitDx=0;exitDy=0;entryX=0.5;entryY=0;entryDx=0;entryDy=0;fontSize=11;fontColor=#000000;elbow=vertical;" edge="1" parent="2" source="15" target="42">
                    <mxGeometry relative="1" as="geometry"/>
                </mxCell>
                <mxCell id="40" style="edgeStyle=orthogonalEdgeStyle;html=1;exitX=0.5;exitY=1;exitDx=0;exitDy=0;entryX=0;entryY=0.5;entryDx=0;entryDy=0;fontSize=11;fontColor=#000000;elbow=vertical;" edge="1" parent="2" source="37" target="15">
                    <mxGeometry relative="1" as="geometry"/>
                </mxCell>
                <mxCell id="44" style="edgeStyle=orthogonalEdgeStyle;html=1;exitX=1;exitY=0.5;exitDx=0;exitDy=0;entryX=0.02;entryY=0.63;entryDx=0;entryDy=0;entryPerimeter=0;fontSize=11;fontColor=#000000;elbow=vertical;dashed=1;" edge="1" parent="2" source="15" target="34">
                    <mxGeometry relative="1" as="geometry"/>
                </mxCell>
                <mxCell id="47" style="edgeStyle=elbowEdgeStyle;html=1;exitX=0.75;exitY=1;exitDx=0;exitDy=0;fontSize=11;fontColor=#9F9E9E;entryX=1;entryY=0.5;entryDx=0;entryDy=0;" edge="1" parent="2" source="19" target="46">
                    <mxGeometry relative="1" as="geometry">
                        <mxPoint x="600" y="670" as="targetPoint"/>
                        <Array as="points">
                            <mxPoint x="660" y="640"/>
                        </Array>
                    </mxGeometry>
                </mxCell>
            </root>
        </mxGraphModel>
    </diagram>
</mxfile>